<?xml version="1.0" standalone="no"?>
<!DOCTYPE svg PUBLIC "-//W3C//DTD SVG 20010904//EN"
 "http://www.w3.org/TR/2001/REC-SVG-20010904/DTD/svg10.dtd">
<svg version="1.0" xmlns="http://www.w3.org/2000/svg"
 width="2568.000000pt" height="2254.000000pt" viewBox="0 0 2568.000000 2254.000000"
 preserveAspectRatio="xMidYMid meet">

<g transform="translate(0.000000,2254.000000) scale(0.100000,-0.100000)"
fill="#000000" stroke="none">
<path d="M6840 22523 c-385 -20 -696 -49 -1020 -94 -1599 -224 -3038 -814
-4010 -1645 -152 -129 -403 -382 -515 -517 -431 -521 -671 -1038 -767 -1652
-29 -190 -36 -586 -14 -795 59 -545 245 -1062 541 -1505 134 -202 233 -324
395 -486 455 -458 1009 -732 1615 -799 132 -15 422 -12 566 5 317 37 668 140
934 273 639 320 1046 862 1152 1535 22 138 21 428 -1 562 -67 403 -228 725
-488 970 -442 419 -1067 511 -1783 265 -159 -55 -165 -59 -79 -60 270 -1 618
-75 841 -180 182 -85 375 -244 470 -385 288 -429 206 -995 -198 -1380 -241
-230 -544 -345 -908 -345 -342 0 -663 94 -1042 306 -110 61 -137 82 -239 184
-132 132 -208 235 -285 382 -353 676 -157 1527 525 2276 450 494 1120 914
1860 1164 833 282 1757 378 2720 282 1472 -145 3031 -730 4563 -1713 87 -55
162 -101 168 -101 5 0 37 22 72 48 330 257 778 540 1112 703 285 138 482 203
657 216 l88 6 -108 102 c-864 822 -1911 1450 -3086 1851 -881 301 -1781 472
-2761 524 -168 9 -827 11 -975 3z"/>
<path d="M18040 20863 c-546 -29 -936 -71 -1386 -148 -2087 -359 -3910 -1310
-5174 -2700 -1260 -1386 -1974 -3136 -2144 -5255 -38 -473 -46 -1247 -16
-1705 52 -812 144 -1510 305 -2313 63 -313 170 -790 179 -799 7 -7 369 179
521 268 647 378 1216 886 1559 1391 l72 106 -7 84 c-45 517 -62 1029 -56 1657
6 650 27 994 93 1531 301 2477 1310 4327 2954 5415 734 486 1599 815 2540 965
721 115 1550 118 2305 9 1684 -242 3161 -992 3786 -1924 168 -250 249 -455
318 -800 44 -223 55 -329 55 -555 0 -228 -16 -367 -63 -553 -140 -551 -494
-990 -990 -1229 -111 -53 -321 -121 -446 -144 -137 -26 -442 -26 -567 -1 -534
107 -897 475 -1017 1028 -74 343 -38 617 111 846 66 103 220 253 338 332 240
160 598 290 965 351 72 11 134 22 139 24 14 3 -225 72 -334 95 -473 100 -891
65 -1245 -104 -447 -214 -756 -629 -872 -1175 -25 -116 -27 -143 -28 -375 0
-279 9 -353 71 -569 136 -473 439 -871 869 -1141 290 -183 695 -316 1175 -387
134 -20 195 -23 450 -23 308 0 373 5 595 50 705 142 1309 545 1727 1155 298
434 477 928 550 1520 20 162 17 631 -5 805 -120 927 -541 1736 -1253 2406
-797 749 -1964 1319 -3319 1623 -566 127 -1136 203 -1755 236 -173 9 -854 11
-1000 3z"/>
<path d="M15140 17822 c-274 -184 -375 -257 -600 -437 -466 -372 -846 -766
-1088 -1127 l-52 -78 40 -202 c193 -965 280 -1858 267 -2728 -8 -497 -27 -760
-88 -1185 -180 -1265 -633 -2322 -1340 -3129 -123 -141 -355 -372 -484 -482
-701 -598 -1575 -1000 -2604 -1199 -1182 -228 -2587 -183 -4131 132 -151 31
-287 58 -303 61 l-27 4 0 367 c1 201 11 1930 24 3841 13 1911 22 3477 20 3479
-2 2 -57 -21 -121 -52 -339 -161 -713 -263 -1096 -298 -158 -14 -480 -6 -627
15 -123 19 -320 65 -427 101 -42 14 -76 24 -78 23 -1 -2 -18 -1555 -38 -3453
-21 -1897 -40 -3567 -43 -3711 l-7 -261 -71 -23 c-104 -33 -334 -133 -466
-202 -688 -359 -1172 -859 -1403 -1448 -84 -215 -142 -477 -154 -704 l-6 -119
84 73 c479 414 1278 648 2509 734 553 39 689 41 2503 38 1998 -4 2450 4 3227
53 2471 157 4196 721 5460 1785 164 138 510 483 643 640 226 269 469 614 632
899 541 946 884 2112 1019 3463 50 496 65 773 72 1333 7 503 -6 945 -36 1205
-88 774 -299 1500 -626 2160 -127 258 -320 590 -341 590 -5 0 -114 -71 -243
-158z"/>
<path d="M19220 12860 c-914 -80 -1637 -466 -2044 -1092 -171 -263 -293 -607
-342 -968 -24 -168 -24 -541 -1 -692 74 -488 280 -819 614 -987 309 -155 816
-173 1113 -39 107 48 157 86 237 182 303 361 398 722 282 1070 -61 183 -173
349 -348 519 -55 54 -101 100 -101 102 0 6 206 69 340 105 298 78 550 113 825
113 323 0 548 -45 794 -160 292 -135 559 -398 734 -723 363 -672 458 -1755
271 -3060 -118 -818 -370 -1722 -561 -2011 -23 -36 -30 -39 -171 -78 -578
-160 -1235 -278 -1857 -335 -596 -55 -1235 -55 -1775 0 -1607 162 -2903 795
-3792 1850 -44 53 -74 81 -82 76 -6 -4 -54 -39 -107 -79 -459 -344 -1161 -681
-1809 -869 -91 -26 -167 -49 -169 -51 -18 -13 278 -317 444 -456 753 -632
1842 -1122 3280 -1477 1703 -420 3807 -599 5485 -465 258 21 423 40 730 85
596 87 892 114 1275 114 343 0 565 -21 815 -78 58 -13 106 -23 107 -22 1 1 3
1365 3 3031 2 3349 6 3128 -62 3475 -150 775 -560 1466 -1174 1976 -613 510
-1369 828 -2209 930 -155 18 -596 26 -745 14z"/>
<path d="M13408 980 c-158 -27 -288 -154 -333 -325 -19 -75 -19 -221 0 -303
51 -216 215 -342 445 -342 126 0 264 45 358 116 l32 25 0 190 0 189 -200 0
-201 0 3 -77 3 -78 108 -3 108 -3 -3 -62 -3 -62 -65 -33 c-119 -60 -231 -54
-314 19 -68 60 -88 113 -94 245 -5 137 11 205 66 266 51 56 110 81 194 81 57
0 75 -5 115 -29 31 -19 54 -43 67 -71 12 -24 28 -42 38 -43 19 0 160 29 165
34 11 10 -43 120 -78 159 -81 93 -243 135 -411 107z"/>
<path d="M19440 977 c-169 -39 -285 -165 -325 -352 -8 -38 -15 -95 -15 -125 0
-124 52 -275 123 -355 149 -170 473 -181 692 -24 l45 32 0 189 0 188 -200 0
-200 0 0 -80 0 -80 105 0 105 0 0 -59 c0 -55 -2 -61 -30 -81 -45 -32 -133 -60
-187 -60 -151 2 -247 109 -260 291 -13 203 60 332 207 359 106 20 213 -26 246
-107 8 -18 21 -33 29 -33 12 0 69 10 143 26 28 6 28 23 -3 88 -33 71 -106 137
-179 165 -73 27 -218 36 -296 18z"/>
<path d="M0 495 l0 -478 228 6 c248 5 294 13 372 66 55 37 114 124 141 209 16
51 21 95 22 182 1 190 -35 303 -127 396 -81 81 -108 87 -393 92 l-243 4 0
-477z m470 289 c77 -45 104 -120 104 -289 -1 -129 -11 -183 -47 -235 -41 -62
-75 -74 -216 -74 l-126 -1 -3 314 -2 313 127 -3 c107 -3 134 -7 163 -25z"/>
<path d="M1992 498 l3 -473 345 0 345 0 3 78 3 77 -256 0 -255 0 0 130 0 130
225 0 225 0 0 80 0 80 -225 0 -225 0 0 105 0 105 245 0 245 0 0 80 0 80 -340
0 -340 0 2 -472z"/>
<path d="M3912 498 l3 -473 265 2 c323 3 346 7 416 78 105 104 112 260 17 357
-20 20 -49 42 -64 49 -16 6 -29 14 -29 18 0 3 16 19 36 35 106 84 99 267 -14
353 -60 46 -114 53 -388 53 l-244 0 2 -472z m493 300 c69 -31 62 -161 -11
-188 -13 -5 -85 -13 -159 -16 l-135 -7 0 118 0 118 141 -7 c78 -4 152 -12 164
-18z m22 -381 c45 -24 66 -69 60 -125 -10 -90 -59 -111 -264 -112 l-123 0 0
131 0 131 148 -4 c114 -3 154 -8 179 -21z"/>
<path d="M6230 616 c0 -232 -4 -364 -11 -385 -19 -53 -92 -77 -149 -48 -31 15
-60 71 -60 116 l0 34 -82 -7 c-46 -4 -87 -11 -91 -15 -12 -12 11 -128 33 -170
22 -43 62 -82 110 -107 28 -15 57 -19 140 -19 116 0 146 10 208 69 82 76 92
136 92 564 l0 322 -95 0 -95 0 0 -354z"/>
<path d="M7770 504 c-96 -256 -177 -470 -178 -475 -2 -6 37 -9 94 -7 l99 3 23
65 c12 36 29 84 38 108 l16 42 185 -2 186 -3 37 -105 37 -105 97 -3 c73 -2 96
0 96 10 0 7 -81 220 -179 473 l-178 460 -99 3 -99 3 -175 -467z m337 69 l61
-168 -121 -3 c-66 -1 -121 -1 -123 1 -6 5 110 337 117 337 3 0 33 -75 66 -167z"/>
<path d="M9672 498 l3 -473 83 -3 82 -3 0 313 c0 197 4 308 9 303 6 -6 90
-145 189 -310 l179 -300 91 -3 92 -3 0 476 0 475 -85 0 -85 0 -2 -314 -3 -313
-185 313 -185 314 -93 0 -92 0 2 -472z"/>
<path d="M11660 495 l0 -475 90 0 90 0 0 475 0 475 -90 0 -90 0 0 -475z"/>
<path d="M15236 500 c-97 -259 -176 -473 -176 -475 0 -3 43 -4 96 -3 l96 3 38
105 37 105 185 3 185 2 40 -107 40 -108 98 -3 c90 -3 97 -1 93 15 -4 13 -226
590 -355 921 -4 8 -34 12 -103 12 l-98 0 -176 -470z m340 70 l61 -170 -123 0
c-68 0 -124 3 -124 8 0 14 114 332 119 332 3 0 33 -77 67 -170z"/>
<path d="M17142 498 l3 -473 82 -3 83 -3 2 313 3 312 185 -309 185 -310 93 -3
92 -3 0 476 0 475 -85 0 -85 0 -2 -315 -3 -316 -185 313 -186 313 -92 3 -92 3
2 -473z"/>
<path d="M21202 603 c3 -359 4 -369 26 -418 30 -65 83 -118 146 -147 45 -20
67 -23 186 -23 133 0 136 1 203 33 48 24 75 45 95 75 55 81 56 84 60 480 l3
367 -90 0 -89 0 -4 -349 c-3 -335 -4 -351 -24 -377 -37 -51 -70 -68 -137 -72
-77 -4 -141 25 -172 78 -19 33 -20 55 -23 378 l-3 342 -90 0 -90 0 3 -367z"/>
<path d="M24830 966 c0 -3 74 -127 165 -275 l165 -270 0 -200 0 -201 90 0 90
0 0 199 0 199 161 263 c89 145 163 269 166 276 4 10 -18 13 -98 13 l-104 0
-95 -172 c-52 -94 -100 -177 -106 -185 -8 -12 -32 23 -116 168 l-106 184 -106
3 c-58 1 -106 0 -106 -2z"/>
<path d="M23192 493 l3 -468 320 0 320 0 3 78 3 77 -231 0 -230 0 0 390 0 390
-95 0 -95 0 2 -467z"/>
</g>
</svg>
