<svg xmlns="http://www.w3.org/2000/svg" width="320" height="320" viewBox="0 0 320 320">
  <defs>
    <linearGradient id="bg" x1="0" y1="0" x2="1" y2="1">
      <stop offset="0%" stop-color="#0f131a"/>
      <stop offset="100%" stop-color="#0b0f16"/>
    </linearGradient>
    <linearGradient id="unlockBtn" x1="0" y1="0" x2="0" y2="1">
      <stop offset="0%" stop-color="#ff7a5c"/>
      <stop offset="100%" stop-color="#e8522a"/>
    </linearGradient>
    <linearGradient id="genBtn" x1="0" y1="0" x2="0" y2="1">
      <stop offset="0%" stop-color="#2ec4c4"/>
      <stop offset="100%" stop-color="#1fa8a8"/>
    </linearGradient>
  </defs>

  <!-- Background -->
  <rect width="320" height="320" fill="url(#bg)" rx="12"/>

  <!-- Header -->
  <text x="160" y="24" fill="#ff6b4a" font-family="'Segoe UI',system-ui,sans-serif" font-size="13" font-weight="700" text-anchor="middle" letter-spacing="1">PASSWORD MANAGER</text>
  <text x="160" y="38" fill="#4a5568" font-family="'Segoe UI',system-ui,sans-serif" font-size="9" text-anchor="middle" letter-spacing="1">PySide6 · Argon2id · Fernet · LOCAL</text>
  <line x1="16" y1="46" x2="304" y2="46" stroke="#1e2836" stroke-width="1"/>

  <!-- ── Unlock Panel ── -->
  <rect x="14" y="52" width="292" height="50" fill="#141a24" rx="8" stroke="#1e2836" stroke-width="1"/>
  <!-- Lock icon (circle + shackle) -->
  <rect x="24" y="66" width="18" height="14" fill="none" stroke="#ff6b4a" stroke-width="1.5" rx="2"/>
  <path d="M27,66 V62 a6,6 0 0 1 12,0 V66" fill="none" stroke="#ff6b4a" stroke-width="1.5" stroke-linecap="round"/>
  <circle cx="33" cy="73" r="2" fill="#ff6b4a"/>
  <!-- Password input field -->
  <rect x="50" y="63" width="170" height="18" fill="#0f131a" rx="4" stroke="#2d3748" stroke-width="1"/>
  <text x="135" y="76" fill="#2d3748" font-family="'Segoe UI',system-ui,sans-serif" font-size="13" text-anchor="middle" letter-spacing="4">••••••••••••</text>
  <!-- Unlock button -->
  <rect x="228" y="63" width="68" height="18" fill="url(#unlockBtn)" rx="4"/>
  <text x="262" y="76" fill="white" font-family="'Segoe UI',system-ui,sans-serif" font-size="9" text-anchor="middle" font-weight="600">Unlock Vault</text>

  <text x="14" y="116" fill="#4a5568" font-family="'Segoe UI',system-ui,sans-serif" font-size="9" letter-spacing="1">VAULT — 4 ENTRIES</text>

  <!-- ── Credentials Table ── -->
  <!-- Header row -->
  <rect x="14" y="120" width="292" height="18" fill="#1a2235" rx="4"/>
  <text x="26"  y="133" fill="#718096" font-family="'Segoe UI',system-ui,sans-serif" font-size="8" font-weight="700">TITLE</text>
  <text x="116" y="133" fill="#718096" font-family="'Segoe UI',system-ui,sans-serif" font-size="8" font-weight="700">USERNAME</text>
  <text x="210" y="133" fill="#718096" font-family="'Segoe UI',system-ui,sans-serif" font-size="8" font-weight="700">PASSWORD</text>

  <!-- Row 1 -->
  <rect x="14" y="140" width="292" height="20" fill="#0f1520" rx="2"/>
  <text x="26"  y="154" fill="#e2e8f0" font-family="'Segoe UI',system-ui,sans-serif" font-size="9">GitHub</text>
  <text x="116" y="154" fill="#a0aec0" font-family="'Segoe UI',system-ui,sans-serif" font-size="9">suroy92</text>
  <text x="210" y="155" fill="#4a5568" font-family="'Segoe UI',system-ui,sans-serif" font-size="12" letter-spacing="2">••••••••</text>
  <rect x="286" y="143" width="14" height="14" fill="#1a2235" rx="3"/>
  <text x="293" y="153" fill="#3bc9db" font-family="'Segoe UI',system-ui,sans-serif" font-size="9" text-anchor="middle">⧉</text>

  <!-- Row 2 (selected/highlighted) -->
  <rect x="14" y="162" width="292" height="20" fill="#162030" rx="2" stroke="#ff6b4a" stroke-width="0.75"/>
  <text x="26"  y="176" fill="#e2e8f0" font-family="'Segoe UI',system-ui,sans-serif" font-size="9">Google</text>
  <text x="116" y="176" fill="#a0aec0" font-family="'Segoe UI',system-ui,sans-serif" font-size="9">me@gmail.com</text>
  <text x="210" y="177" fill="#4a5568" font-family="'Segoe UI',system-ui,sans-serif" font-size="12" letter-spacing="2">••••••••</text>
  <rect x="286" y="165" width="14" height="14" fill="#1a2235" rx="3"/>
  <text x="293" y="175" fill="#3bc9db" font-family="'Segoe UI',system-ui,sans-serif" font-size="9" text-anchor="middle">⧉</text>

  <!-- Row 3 -->
  <rect x="14" y="184" width="292" height="20" fill="#0f1520" rx="2"/>
  <text x="26"  y="198" fill="#e2e8f0" font-family="'Segoe UI',system-ui,sans-serif" font-size="9">AWS Console</text>
  <text x="116" y="198" fill="#a0aec0" font-family="'Segoe UI',system-ui,sans-serif" font-size="9">admin@work.io</text>
  <text x="210" y="199" fill="#4a5568" font-family="'Segoe UI',system-ui,sans-serif" font-size="12" letter-spacing="2">••••••••</text>
  <rect x="286" y="187" width="14" height="14" fill="#1a2235" rx="3"/>
  <text x="293" y="197" fill="#3bc9db" font-family="'Segoe UI',system-ui,sans-serif" font-size="9" text-anchor="middle">⧉</text>

  <!-- Row 4 -->
  <rect x="14" y="206" width="292" height="20" fill="#0f1520" rx="2"/>
  <text x="26"  y="220" fill="#e2e8f0" font-family="'Segoe UI',system-ui,sans-serif" font-size="9">Netlify</text>
  <text x="116" y="220" fill="#a0aec0" font-family="'Segoe UI',system-ui,sans-serif" font-size="9">suroy92</text>
  <text x="210" y="221" fill="#4a5568" font-family="'Segoe UI',system-ui,sans-serif" font-size="12" letter-spacing="2">••••••••</text>
  <rect x="286" y="209" width="14" height="14" fill="#1a2235" rx="3"/>
  <text x="293" y="219" fill="#3bc9db" font-family="'Segoe UI',system-ui,sans-serif" font-size="9" text-anchor="middle">⧉</text>

  <line x1="16" y1="235" x2="304" y2="235" stroke="#1e2836" stroke-width="1"/>

  <!-- ── Password Generator ── -->
  <text x="14" y="250" fill="#4a5568" font-family="'Segoe UI',system-ui,sans-serif" font-size="9" letter-spacing="1">PASSWORD GENERATOR</text>
  <rect x="14" y="255" width="210" height="18" fill="#0f131a" rx="4" stroke="#2d3748" stroke-width="1"/>
  <text x="119" y="268" fill="#3bc9db" font-family="'Courier New',monospace,sans-serif" font-size="9" text-anchor="middle" letter-spacing="1">kR#9mXv@2pLq</text>
  <rect x="232" y="255" width="74" height="18" fill="url(#genBtn)" rx="4"/>
  <text x="269" y="268" fill="white" font-family="'Segoe UI',system-ui,sans-serif" font-size="9" text-anchor="middle" font-weight="600">Regenerate</text>

  <!-- ── Security Badges ── -->
  <rect x="14"  y="283" width="84" height="20" fill="#1a0d2e" rx="4" stroke="#6e40c9" stroke-width="1"/>
  <text x="56"  y="297" fill="#a371f7" font-family="'Segoe UI',system-ui,sans-serif" font-size="8.5" text-anchor="middle" font-weight="600">Argon2id KDF</text>

  <rect x="106" y="283" width="84" height="20" fill="#081e20" rx="4" stroke="#1a8a8a" stroke-width="1"/>
  <text x="148" y="297" fill="#3bc9db" font-family="'Segoe UI',system-ui,sans-serif" font-size="8.5" text-anchor="middle" font-weight="600">Fernet AES-128</text>

  <rect x="198" y="283" width="84" height="20" fill="#0d1f14" rx="4" stroke="#2ea043" stroke-width="1"/>
  <text x="240" y="297" fill="#3fb950" font-family="'Segoe UI',system-ui,sans-serif" font-size="8.5" text-anchor="middle" font-weight="600">100% Local</text>
</svg>
